<svg width="16" height="17" viewBox="0 0 16 17" fill="none" xmlns="http://www.w3.org/2000/svg">
<path d="M1.37468 8.56534C1.31912 8.41566 1.31912 8.25102 1.37468 8.10134C1.91581 6.78924 2.83435 5.66737 4.01386 4.87794C5.19336 4.08851 6.58071 3.66708 8.00001 3.66708C9.41932 3.66708 10.8067 4.08851 11.9862 4.87794C13.1657 5.66737 14.0842 6.78924 14.6253 8.10134C14.6809 8.25102 14.6809 8.41566 14.6253 8.56534C14.0842 9.87744 13.1657 10.9993 11.9862 11.7887C10.8067 12.5782 9.41932 12.9996 8.00001 12.9996C6.58071 12.9996 5.19336 12.5782 4.01386 11.7887C2.83435 10.9993 1.91581 9.87744 1.37468 8.56534Z" stroke="#99A1AF" stroke-width="1.33333" stroke-linecap="round" stroke-linejoin="round"/>
<path d="M8 10.3333C9.10457 10.3333 10 9.43791 10 8.33334C10 7.22877 9.10457 6.33334 8 6.33334C6.89543 6.33334 6 7.22877 6 8.33334C6 9.43791 6.89543 10.3333 8 10.3333Z" stroke="#99A1AF" stroke-width="1.33333" stroke-linecap="round" stroke-linejoin="round"/>
</svg>
